<mxfile host="app.diagrams.net" modified="2021-09-02T08:34:18.080Z" agent="5.0 (Macintosh; Intel Mac OS X 10_14_6) AppleWebKit/537.36 (KHTML, like Gecko) Chrome/92.0.4515.159 Safari/537.36" etag="KrroupjdkcQjXrcI7CZn" version="15.0.4" type="github">
  <diagram id="_NaqfIR3ipIdce3M8Hld" name="Page-1">
    <mxGraphModel dx="1931" dy="1097" grid="1" gridSize="10" guides="1" tooltips="1" connect="1" arrows="1" fold="1" page="1" pageScale="1" pageWidth="827" pageHeight="1169" math="0" shadow="0">
      <root>
        <mxCell id="0" />
        <mxCell id="1" parent="0" />
        <mxCell id="UYYiRu3JiKPVgYHLEI6I-1" value="AWS Cloud" style="points=[[0,0],[0.25,0],[0.5,0],[0.75,0],[1,0],[1,0.25],[1,0.5],[1,0.75],[1,1],[0.75,1],[0.5,1],[0.25,1],[0,1],[0,0.75],[0,0.5],[0,0.25]];outlineConnect=0;gradientColor=none;html=1;whiteSpace=wrap;fontSize=12;fontStyle=0;shape=mxgraph.aws4.group;grIcon=mxgraph.aws4.group_aws_cloud_alt;strokeColor=#232F3E;fillColor=none;verticalAlign=top;align=left;spacingLeft=30;fontColor=#232F3E;dashed=0;strokeWidth=3;" vertex="1" parent="1">
          <mxGeometry x="80" y="280" width="560" height="320" as="geometry" />
        </mxCell>
        <mxCell id="UYYiRu3JiKPVgYHLEI6I-2" value="EKS" style="dashed=0;verticalAlign=top;fontStyle=0;fontColor=#232F3D;fillColor=none;strokeWidth=2;" vertex="1" parent="1">
          <mxGeometry x="160" y="320" width="320" height="240" as="geometry" />
        </mxCell>
        <mxCell id="UYYiRu3JiKPVgYHLEI6I-8" style="rounded=0;orthogonalLoop=1;jettySize=auto;html=1;" edge="1" parent="1" source="UYYiRu3JiKPVgYHLEI6I-3" target="UYYiRu3JiKPVgYHLEI6I-6">
          <mxGeometry relative="1" as="geometry" />
        </mxCell>
        <mxCell id="UYYiRu3JiKPVgYHLEI6I-3" value="Job" style="shape=image;html=1;verticalAlign=top;verticalLabelPosition=bottom;labelBackgroundColor=#ffffff;imageAspect=0;aspect=fixed;image=https://cdn4.iconfinder.com/data/icons/logos-and-brands/512/97_Docker_logo_logos-128.png" vertex="1" parent="1">
          <mxGeometry x="200" y="361.28" width="40" height="40" as="geometry" />
        </mxCell>
        <mxCell id="UYYiRu3JiKPVgYHLEI6I-9" style="edgeStyle=orthogonalEdgeStyle;rounded=0;orthogonalLoop=1;jettySize=auto;html=1;" edge="1" parent="1" source="UYYiRu3JiKPVgYHLEI6I-4" target="UYYiRu3JiKPVgYHLEI6I-6">
          <mxGeometry relative="1" as="geometry" />
        </mxCell>
        <mxCell id="UYYiRu3JiKPVgYHLEI6I-4" value="logrotate" style="shape=image;html=1;verticalAlign=top;verticalLabelPosition=bottom;labelBackgroundColor=#ffffff;imageAspect=0;aspect=fixed;image=https://cdn4.iconfinder.com/data/icons/logos-and-brands/512/97_Docker_logo_logos-128.png" vertex="1" parent="1">
          <mxGeometry x="280" y="361.28" width="40" height="40" as="geometry" />
        </mxCell>
        <mxCell id="UYYiRu3JiKPVgYHLEI6I-12" style="edgeStyle=none;rounded=0;orthogonalLoop=1;jettySize=auto;html=1;" edge="1" parent="1" source="UYYiRu3JiKPVgYHLEI6I-5" target="UYYiRu3JiKPVgYHLEI6I-11">
          <mxGeometry relative="1" as="geometry" />
        </mxCell>
        <mxCell id="UYYiRu3JiKPVgYHLEI6I-5" value="logrotate" style="shape=image;html=1;verticalAlign=top;verticalLabelPosition=bottom;labelBackgroundColor=#ffffff;imageAspect=0;aspect=fixed;image=https://cdn4.iconfinder.com/data/icons/logos-and-brands/512/97_Docker_logo_logos-128.png" vertex="1" parent="1">
          <mxGeometry x="360" y="361.28" width="40" height="40" as="geometry" />
        </mxCell>
        <mxCell id="UYYiRu3JiKPVgYHLEI6I-10" style="rounded=0;orthogonalLoop=1;jettySize=auto;html=1;" edge="1" parent="1" source="UYYiRu3JiKPVgYHLEI6I-6" target="UYYiRu3JiKPVgYHLEI6I-5">
          <mxGeometry relative="1" as="geometry" />
        </mxCell>
        <mxCell id="UYYiRu3JiKPVgYHLEI6I-6" value="" style="outlineConnect=0;fontColor=#232F3E;gradientColor=none;fillColor=#6CAE3E;strokeColor=none;dashed=0;verticalLabelPosition=bottom;verticalAlign=top;align=center;html=1;fontSize=12;fontStyle=0;aspect=fixed;pointerEvents=1;shape=mxgraph.aws4.file_system;" vertex="1" parent="1">
          <mxGeometry x="280" y="481.28" width="40" height="37.44" as="geometry" />
        </mxCell>
        <mxCell id="UYYiRu3JiKPVgYHLEI6I-11" value="Elasticsearch" style="points=[[0,0,0],[0.25,0,0],[0.5,0,0],[0.75,0,0],[1,0,0],[0,1,0],[0.25,1,0],[0.5,1,0],[0.75,1,0],[1,1,0],[0,0.25,0],[0,0.5,0],[0,0.75,0],[1,0.25,0],[1,0.5,0],[1,0.75,0]];outlineConnect=0;fontColor=#232F3E;gradientColor=#945DF2;gradientDirection=north;fillColor=#5A30B5;strokeColor=#ffffff;dashed=0;verticalLabelPosition=bottom;verticalAlign=top;align=center;html=1;fontSize=12;fontStyle=0;aspect=fixed;shape=mxgraph.aws4.resourceIcon;resIcon=mxgraph.aws4.elasticsearch_service;" vertex="1" parent="1">
          <mxGeometry x="560" y="361.28" width="40" height="40" as="geometry" />
        </mxCell>
        <mxCell id="UYYiRu3JiKPVgYHLEI6I-13" value="POD" style="dashed=0;verticalAlign=top;fontStyle=0;fontColor=#232F3D;fillColor=none;" vertex="1" parent="1">
          <mxGeometry x="180" y="345" width="280" height="195" as="geometry" />
        </mxCell>
      </root>
    </mxGraphModel>
  </diagram>
</mxfile>
